# xmcd
#
# Track frame offsets:
#	179
#	4778
#	10553
#	17486
#	20828
#	24158
#	29434
#	36875
#	39991
#	45253
#	49055
#	54820
#	58687
#	63729
#	65436
#	70702
#	83172
#	88764
#	102165
#	104273
#	106005
#	109851
#	111112
#	117289
#	119047
#	122521
#	125956
#	128328
#	134591
#	138476
#	140384
#	148320
#	154283
#	160172
#	167707
#	172816
#	179788
#	190746
#
# Disc length: 2646 seconds
# Revision: 1
# Processed by: cddbd v1.5.2PL0 Copyright (c) Steve Scherf et al.
# Submitted via: dBpowerAMP V12.0
#
DISCID=0b0a5426
DTITLE=Johnny Cash - Complete Columbia Album Collection, Disc 32 [Gospel Road 1]
DYEAR=1973
DGENRE=Country
TTITLE0=Praise the Lord
TTITLE1=Introduction
TTITLE2=Gospel Road (Part I)
TTITLE3=Jesus' Early Years
TTITLE4=Gospel Road (Part II)
TTITLE5=John the Baptist
TTITLE6=Baptism of Jesus
TTITLE7=Wilderness Temptation
TTITLE8=Follow Me, Jesus
TTITLE9=Gospel Road (Part III)
TTITLE10=Jesus Announces His Divinity
TTITLE11=Jesus' Opposition is Established
TTITLE12=Jesus' First Miracle
TTITLE13=He Turned the Water into Wine (Part I)
TTITLE14=State of the Nation
TTITLE15=I See Men as Trees Walking
TTITLE16=Jesus Was a Carpenter (Part I)
TTITLE17=Choosing of Twelve Disciples
TTITLE18=Jesus' Teachings
TTITLE19=Parable of the Good Shepherd
TTITLE20=The Two Greatest Commandments
TTITLE21=Greater Love Hath No Man
TTITLE22=John the Baptist's Imprisonment and Death
TTITLE23=Jesus Cleanses Temple
TTITLE24=Jesus Upbraids Scribes and Pharises
TTITLE25=Jesus in the Temple
TTITLE26=Come Unto Me
TTITLE27=The Adulterous Woman
TTITLE28=Help (Part I)
TTITLE29=Jesus and Nicodemus
TTITLE30=Help (Part II)
TTITLE31=Sermon on the Mount
TTITLE32=Blessed Are
TTITLE33=The Lord's Prayer, Amen Chorus
TTITLE34=Introducing Mary Magdalene
TTITLE35=Mary Magdalene Speaks
TTITLE36=Follow Me
TTITLE37=Magdalene Speaks Again
EXTD=
EXTT0=
EXTT1=
EXTT2=
EXTT3=
EXTT4=
EXTT5=
EXTT6=
EXTT7=
EXTT8=
EXTT9=
EXTT10=
EXTT11=
EXTT12=
EXTT13=
EXTT14=
EXTT15=
EXTT16=
EXTT17=
EXTT18=
EXTT19=
EXTT20=
EXTT21=
EXTT22=
EXTT23=
EXTT24=
EXTT25=
EXTT26=
EXTT27=
EXTT28=
EXTT29=
EXTT30=
EXTT31=
EXTT32=
EXTT33=
EXTT34=
EXTT35=
EXTT36=
EXTT37=
PLAYORDER=
